# xmcd
#
# Track frame offsets: 
#        150
#        22470
#        43356
#        60377
#        81212
#        98756
#        118106
#        137994
#        162439
#        178897
#        204007
#        227351
#        251882
#
# Disc length: 3621 seconds
#
# Revision: 2
# Processed by: cddbd v1.5.1PL0 Copyright (c) Steve Scherf et al.
# Submitted via: ExactAudioCopy v0.95a5
#
DISCID=b80e230d
DTITLE=伽菲珈而 - 嚮往
DYEAR=2004
DGENRE=Blues
TTITLE0=一個真實的故事
TTITLE1=花兒為什麼這樣紅
TTITLE2=繡荷包
TTITLE3=嚮往
TTITLE4=弦子舞曲
TTITLE5=牧歌
TTITLE6=耶利亞女郎
TTITLE7=彎彎的月亮
TTITLE8=在那遙遠的地方
TTITLE9=忘不了
TTITLE10=讚歌
TTITLE11=葬心
TTITLE12=化蝶
EXTD=
EXTT0=
EXTT1=
EXTT2=
EXTT3=
EXTT4=
EXTT5=
EXTT6=
EXTT7=
EXTT8=
EXTT9=
EXTT10=
EXTT11=
EXTT12=
PLAYORDER=
